<?xml version="1.0" encoding="UTF-8" standalone="no" ?>
<!DOCTYPE svg PUBLIC "-//W3C//DTD SVG 1.1//EN" "http://www.w3.org/Graphics/SVG/1.1/DTD/svg11.dtd">
<svg xmlns="http://www.w3.org/2000/svg" xmlns:xlink="http://www.w3.org/1999/xlink" version="1.1" width="512" height="512" viewBox="0 0 512 512" xml:space="preserve">
<desc>Created with Fabric.js 5.2.4</desc>
<defs>
</defs>
<g transform="matrix(1 0 0 1 256 256)" id="6eafd6a9-b075-4a8b-a169-8783701e0213"  >
<rect style="stroke: none; stroke-width: 1; stroke-dasharray: none; stroke-linecap: butt; stroke-dashoffset: 0; stroke-linejoin: miter; stroke-miterlimit: 4; fill: rgb(255,255,255); fill-rule: nonzero; opacity: 1; visibility: hidden;" vector-effect="non-scaling-stroke"  x="-256" y="-256" rx="0" ry="0" width="512" height="512" />
</g>
<g transform="matrix(Infinity NaN NaN Infinity 0 0)" id="ffb66668-6a0f-4f98-b36e-72e398c2f7c1"  >
</g>
<g transform="matrix(0.47 0 0 0.47 256 256)"  >
<g style="" vector-effect="non-scaling-stroke"   >
		<g transform="matrix(14.59 0 0 14.59 -265.21 -142.83)"  >
<path style="stroke: none; stroke-width: 1; stroke-dasharray: none; stroke-linecap: butt; stroke-dashoffset: 0; stroke-linejoin: miter; stroke-miterlimit: 4; fill: rgb(67,107,28); fill-rule: nonzero; opacity: 1;" vector-effect="non-scaling-stroke"  transform=" translate(-9.24, -17.62)" d="M 11.217 19.913 C 10.882 19.913 10.554 19.744 10.365 19.437 C 9.751 18.442 8.604000000000001 17.291 7.287000000000001 17.333000000000002 C 6.727 17.303 6.273000000000001 16.915000000000003 6.257000000000001 16.364 C 6.24 15.811 6.674 15.350000000000001 7.226000000000001 15.333 C 9.333000000000002 15.27 11.13 16.867 12.067 18.388 C 12.357 18.858 12.211 19.474 11.741 19.764000000000003 C 11.578 19.865 11.396 19.913 11.217 19.913 z" stroke-linecap="round" />
</g>
		<g transform="matrix(14.59 0 0 14.59 -58.53 -187.64)"  >
<path style="stroke: none; stroke-width: 1; stroke-dasharray: none; stroke-linecap: butt; stroke-dashoffset: 0; stroke-linejoin: miter; stroke-miterlimit: 4; fill: rgb(136,192,87); fill-rule: nonzero; opacity: 1;" vector-effect="non-scaling-stroke"  transform=" translate(-23.4, -14.55)" d="M 31.684 6.597 C 31.55 4.649000000000001 29.931 3.1090000000000004 27.949 3.1090000000000004 C 27.943 3.1090000000000004 27.938000000000002 3.1100000000000003 27.932000000000002 3.1100000000000003 C 27.967000000000002 2.8150000000000004 27.947000000000003 2.503 27.852000000000004 2.1780000000000004 C 27.584000000000003 1.2640000000000002 26.780000000000005 0.5620000000000003 25.834000000000003 0.4490000000000003 C 25.058000000000003 0.3570000000000003 24.346000000000004 0.6350000000000002 23.847 1.1280000000000003 C 23.372 0.6990000000000003 22.75 0.4310000000000004 22.060000000000002 0.4310000000000004 C 20.581000000000003 0.4310000000000004 19.383000000000003 1.6300000000000003 19.383000000000003 3.1080000000000005 C 19.383000000000003 3.1130000000000004 19.384000000000004 3.1170000000000004 19.384000000000004 3.1220000000000003 C 17.587000000000003 3.2580000000000005 16.170000000000005 4.757000000000001 16.170000000000005 6.589 C 16.170000000000005 6.869000000000001 16.207000000000004 7.140000000000001 16.269000000000005 7.401000000000001 C 14.130000000000006 7.490000000000001 12.422000000000006 9.248000000000001 12.422000000000006 11.409 C 12.422000000000006 12.141 12.621000000000006 12.825000000000001 12.963000000000006 13.416 C 12.306000000000006 13.956 11.886000000000006 14.775 11.886000000000006 15.692 C 11.886000000000006 16.53 12.241000000000007 17.281 12.803000000000006 17.816 C 15.215000000000007 15.844999999999999 17.749000000000006 22.436999999999998 20.733000000000004 27.7 C 21.724000000000004 29.448 32.431000000000004 27.586 33.284000000000006 28.672 C 34.25600000000001 27.798000000000002 34.88400000000001 12.578 34.91100000000001 11.241 C 34.953 9.096 33.591 7.266 31.684 6.597 z" stroke-linecap="round" />
</g>
		<g transform="matrix(14.59 0 0 14.59 175 -202.07)"  >
<path style="stroke: none; stroke-width: 1; stroke-dasharray: none; stroke-linecap: butt; stroke-dashoffset: 0; stroke-linejoin: miter; stroke-miterlimit: 4; fill: rgb(238,175,75); fill-rule: nonzero; opacity: 1;" vector-effect="non-scaling-stroke"  transform=" translate(-39.4, -13.56)" d="M 33.053 26.533 L 33.766 26.106 C 35.086 25.314 36.733999999999995 25.314 38.053 26.106 L 38.766 26.533 C 40.086 27.325000000000003 41.733999999999995 27.325000000000003 43.053 26.533 L 45.068 25.637 C 45.364 24.811 45.57 24.213 45.652 23.948 C 47.532000000000004 17.901 48.743 11.534 48.908 5.183 C 48.974000000000004 2.629 46.862 -1.354 43.353 0.4559999999999995 C 39.904 2.2339999999999995 37.434000000000005 9.052999999999999 35.698 12.291 C 33.232 16.892 31.282 21.896 29.893 26.995 C 30.951 27.262 32.089 27.111 33.053 26.533 z" stroke-linecap="round" />
</g>
		<g transform="matrix(14.59 0 0 14.59 -198.78 -82.02)"  >
<path style="stroke: none; stroke-width: 1; stroke-dasharray: none; stroke-linecap: butt; stroke-dashoffset: 0; stroke-linejoin: miter; stroke-miterlimit: 4; fill: rgb(237,63,50); fill-rule: nonzero; opacity: 1;" vector-effect="non-scaling-stroke"  transform=" translate(-13.79, -21.79)" d="M 7.055 25.506 L 8.4 26.313 C 9.945 27.24 11.875 27.24 13.42 26.313 L 13.766 26.105 C 15.086 25.313 16.734 25.313 18.053 26.105 L 18.766000000000002 26.532 C 19.541 26.997 20.429000000000002 27.181 21.297 27.1 C 21.937 25.033 21.722 22.449 20.73 20.700000000000003 C 17.394000000000002 14.815000000000003 14.619 16.014000000000003 11.949 18.569000000000003 C 11.437 19.059 10.811 19.418000000000003 10.129 19.613000000000003 C 7.201 20.450000000000003 5.039999999999999 21.819000000000003 6.269 25.547000000000004 C 6.486 25.389 6.788 25.346 7.055 25.506 z" stroke-linecap="round" />
</g>
		<g transform="matrix(14.59 0 0 14.59 170.5 -84.36)"  >
<path style="stroke: none; stroke-width: 1; stroke-dasharray: none; stroke-linecap: butt; stroke-dashoffset: 0; stroke-linejoin: miter; stroke-miterlimit: 4; fill: rgb(164,111,62); fill-rule: nonzero; opacity: 1;" vector-effect="non-scaling-stroke"  transform=" translate(-39.09, -21.63)" d="M 35.592 24.356 C 35.486 24.356 35.376999999999995 24.339000000000002 35.271 24.303 C 34.748 24.125 34.468 23.557000000000002 34.646 23.034000000000002 C 35.313 21.072000000000003 37.455 20.022000000000002 39.414 20.682000000000002 C 40.333 20.995 41.334 20.501 41.646 19.582 C 41.823 19.059 42.389 18.777 42.915 18.956 C 43.438 19.134 43.717999999999996 19.701999999999998 43.54 20.224999999999998 C 42.874 22.188 40.734 23.241999999999997 38.772 22.576999999999998 C 37.854 22.264999999999997 36.853 22.759999999999998 36.54 23.677 C 36.397 24.095 36.008 24.356 35.592 24.356 z" stroke-linecap="round" />
</g>
		<g transform="matrix(14.59 0 0 14.59 205.01 -186.04)"  >
<path style="stroke: none; stroke-width: 1; stroke-dasharray: none; stroke-linecap: butt; stroke-dashoffset: 0; stroke-linejoin: miter; stroke-miterlimit: 4; fill: rgb(164,111,62); fill-rule: nonzero; opacity: 1;" vector-effect="non-scaling-stroke"  transform=" translate(-41.46, -14.66)" d="M 37.957 17.389 C 37.851 17.389 37.742 17.372 37.636 17.336 C 37.113 17.157999999999998 36.833000000000006 16.59 37.011 16.067 C 37.334 15.116 38.008 14.347 38.908 13.903 C 39.808 13.459 40.827 13.392000000000001 41.779 13.715 C 42.7 14.029 43.699000000000005 13.534 44.011 12.614 C 44.188 12.09 44.756 11.809000000000001 45.279 11.988000000000001 C 45.80200000000001 12.166000000000002 46.082 12.734000000000002 45.904 13.257000000000001 C 45.23800000000001 15.221000000000002 43.098000000000006 16.273000000000003 41.136 15.610000000000001 C 40.691 15.458000000000002 40.213 15.489 39.792 15.697000000000001 C 39.371 15.905000000000001 39.056000000000004 16.264 38.904 16.71 C 38.763 17.127 38.374 17.389 37.957 17.389 z" stroke-linecap="round" />
</g>
		<g transform="matrix(14.59 0 0 14.59 231.02 -283.51)"  >
<path style="stroke: none; stroke-width: 1; stroke-dasharray: none; stroke-linecap: butt; stroke-dashoffset: 0; stroke-linejoin: miter; stroke-miterlimit: 4; fill: rgb(164,111,62); fill-rule: nonzero; opacity: 1;" vector-effect="non-scaling-stroke"  transform=" translate(-43.24, -7.98)" d="M 40.323 10.421 C 40.217 10.421 40.108 10.404 40.001 10.367999999999999 C 39.477999999999994 10.189999999999998 39.198 9.621999999999998 39.376 9.098999999999998 C 39.96 7.376999999999999 41.839 6.4529999999999985 43.561 7.034999999999998 C 43.891 7.1469999999999985 44.243 7.124999999999998 44.554 6.971999999999999 C 44.865 6.818999999999999 45.098 6.552999999999999 45.21 6.223999999999998 C 45.387 5.700999999999999 45.954 5.419999999999998 46.479 5.597999999999998 C 47.002 5.775999999999998 47.282 6.343999999999998 47.104 6.866999999999998 C 46.82 7.701999999999998 46.229 8.376999999999999 45.439 8.765999999999998 C 44.648 9.155999999999999 43.753 9.212999999999997 42.918 8.929999999999998 C 42.24 8.698999999999998 41.5 9.063999999999998 41.269999999999996 9.742999999999999 C 41.128 10.159 40.739 10.421 40.323 10.421 z" stroke-linecap="round" />
</g>
		<g transform="matrix(14.59 0 0 14.59 3.69 -144.63)"  >
<path style="stroke: none; stroke-width: 1; stroke-dasharray: none; stroke-linecap: butt; stroke-dashoffset: 0; stroke-linejoin: miter; stroke-miterlimit: 4; fill: rgb(218,231,239); fill-rule: nonzero; opacity: 1;" vector-effect="non-scaling-stroke"  transform=" translate(-27.66, -17.5)" d="M 23.37 14.095 C 22.425 15.352 20.934 16.84 21.508000000000003 19.468 L 23.052000000000003 26.533 C 23.052000000000003 26.533 23.053000000000004 26.533 23.053000000000004 26.533 L 23.766000000000005 26.106 C 25.086000000000006 25.314 26.734000000000005 25.314 28.053000000000004 26.106 L 28.766000000000005 26.533 C 29.346000000000004 26.881 29.893000000000004 26.996000000000002 29.893000000000004 26.996000000000002 C 30.935000000000006 23.173000000000002 32.292 19.403000000000002 33.94500000000001 15.817000000000002 C 33.17100000000001 13.881000000000002 31.518000000000008 13.233000000000002 30.31800000000001 12.570000000000002 C 30.311000000000007 12.566000000000003 30.30400000000001 12.562000000000003 30.29800000000001 12.559000000000003 C 29.53900000000001 12.124000000000002 29.492000000000008 11.085000000000003 30.06300000000001 10.423000000000002 C 30.28800000000001 10.162000000000003 30.39200000000001 9.803000000000003 30.31400000000001 9.443000000000001 L 30.193000000000012 8.891000000000002 C 30.060000000000013 8.283000000000001 29.45400000000001 7.895000000000001 28.847000000000012 8.028000000000002 L 22.77 9.354 C 22.162 9.486999999999998 21.774 10.093 21.907 10.7 L 22.028 11.251999999999999 C 22.107999999999997 11.62 22.362 11.905 22.683999999999997 12.043999999999999 C 23.423 12.363 23.874 13.187999999999999 23.496 13.899 C 23.46 13.966 23.418 14.031 23.37 14.095 z" stroke-linecap="round" />
</g>
		<g transform="matrix(14.59 0 0 14.59 -21.23 -253.43)"  >
<path style="stroke: none; stroke-width: 1; stroke-dasharray: none; stroke-linecap: butt; stroke-dashoffset: 0; stroke-linejoin: miter; stroke-miterlimit: 4; fill: rgb(255,255,255); fill-rule: nonzero; opacity: 1;" vector-effect="non-scaling-stroke"  transform=" translate(-25.95, -10.04)" d="M 29.746 10.899 L 22.866999999999997 12.402 C 22.107999999999997 12.568 21.349999999999998 12.081999999999999 21.183999999999997 11.322999999999999 L 21.084999999999997 10.870999999999999 C 20.918999999999997 10.111999999999998 21.404999999999998 9.354 22.163999999999998 9.187999999999999 L 29.043 7.684999999999999 C 29.802 7.518999999999998 30.56 8.004999999999999 30.726 8.764 L 30.825 9.216 C 30.991 9.976 30.505 10.733 29.746 10.899 z" stroke-linecap="round" />
</g>
		<g transform="matrix(14.59 0 0 14.59 -15.27 182.43)"  >
<path style="stroke: none; stroke-width: 1; stroke-dasharray: none; stroke-linecap: butt; stroke-dashoffset: 0; stroke-linejoin: miter; stroke-miterlimit: 4; fill: rgb(251,212,144); fill-rule: nonzero; opacity: 1;" vector-effect="non-scaling-stroke"  transform=" translate(-26.36, -39.91)" d="M 46.816 25.332 L 45.071000000000005 50.361000000000004 C 44.943000000000005 52.86000000000001 42.88 54.82000000000001 40.37800000000001 54.82000000000001 L 12.307 54.82000000000001 C 9.805 54.82000000000001 7.742 52.86000000000001 7.614000000000001 50.361000000000004 L 5.911 26.153 C 5.882 25.584 6.499 25.212999999999997 6.9879999999999995 25.506 L 8.333 26.313 C 9.878 27.24 11.808 27.24 13.353 26.313 L 13.699 26.105 C 15.019 25.313 16.667 25.313 17.986 26.105 L 18.699 26.533 C 20.019000000000002 27.325000000000003 21.667 27.325000000000003 22.986 26.533 L 23.699 26.105 C 25.019000000000002 25.313 26.667 25.313 27.986 26.105 L 28.699 26.533 C 30.019000000000002 27.325000000000003 31.667 27.325000000000003 32.986000000000004 26.533 L 33.699000000000005 26.105 C 35.019000000000005 25.313 36.667 25.313 37.986000000000004 26.105 L 38.699000000000005 26.533 C 40.019000000000005 27.325000000000003 41.667 27.325000000000003 42.986000000000004 26.533 L 46.373000000000005 25.028000000000002 C 46.588 24.932 46.828 25.097 46.816 25.332 z" stroke-linecap="round" />
</g>
		<g transform="matrix(14.59 0 0 14.59 -189.71 198.33)"  >
<path style="stroke: none; stroke-width: 1; stroke-dasharray: none; stroke-linecap: butt; stroke-dashoffset: 0; stroke-linejoin: miter; stroke-miterlimit: 4; fill: rgb(224,184,119); fill-rule: nonzero; opacity: 1;" vector-effect="non-scaling-stroke"  transform=" translate(-14.41, -41)" d="M 17.91 42 L 10.91 42 C 10.358 42 9.91 41.553 9.91 41 C 9.91 40.447 10.358 40 10.91 40 L 17.91 40 C 18.462 40 18.91 40.447 18.91 41 C 18.91 41.553 18.462 42 17.91 42 z" stroke-linecap="round" />
</g>
		<g transform="matrix(14.59 0 0 14.59 -175.12 256.7)"  >
<path style="stroke: none; stroke-width: 1; stroke-dasharray: none; stroke-linecap: butt; stroke-dashoffset: 0; stroke-linejoin: miter; stroke-miterlimit: 4; fill: rgb(224,184,119); fill-rule: nonzero; opacity: 1;" vector-effect="non-scaling-stroke"  transform=" translate(-15.41, -45)" d="M 19.91 46 L 10.91 46 C 10.358 46 9.91 45.553 9.91 45 C 9.91 44.447 10.358 44 10.91 44 L 19.91 44 C 20.462 44 20.91 44.447 20.91 45 C 20.91 45.553 20.462 46 19.91 46 z" stroke-linecap="round" />
</g>
		<g transform="matrix(14.59 0 0 14.59 -160.52 315.08)"  >
<path style="stroke: none; stroke-width: 1; stroke-dasharray: none; stroke-linecap: butt; stroke-dashoffset: 0; stroke-linejoin: miter; stroke-miterlimit: 4; fill: rgb(224,184,119); fill-rule: nonzero; opacity: 1;" vector-effect="non-scaling-stroke"  transform=" translate(-16.41, -49)" d="M 21.91 50 L 10.91 50 C 10.358 50 9.91 49.553 9.91 49 C 9.91 48.447 10.358 48 10.91 48 L 21.91 48 C 22.462 48 22.91 48.447 22.91 49 C 22.91 49.553 22.462 50 21.91 50 z" stroke-linecap="round" />
</g>
		<g transform="matrix(14.59 0 0 14.59 -7.29 315.08)"  >
<path style="stroke: none; stroke-width: 1; stroke-dasharray: none; stroke-linecap: butt; stroke-dashoffset: 0; stroke-linejoin: miter; stroke-miterlimit: 4; fill: rgb(224,184,119); fill-rule: nonzero; opacity: 1;" vector-effect="non-scaling-stroke"  transform=" translate(-26.91, -49)" d="M 27.91 50 L 25.91 50 C 25.358 50 24.91 49.553 24.91 49 C 24.91 48.447 25.358 48 25.91 48 L 27.91 48 C 28.462 48 28.91 48.447 28.91 49 C 28.91 49.553 28.462 50 27.91 50 z" stroke-linecap="round" />
</g>
</g>
</g>
</svg>